# xmcd
#
# Track frame offsets: 
#        150
#        26205
#        44949
#        72264
#        91554
#        111140
#        129984
#        152395
#        177869
#        194930
#        218678
#        240036
#        252730
#        275407
#        298124
#
# Disc length: 4267 seconds
#
# Revision: 0
# Processed by: cddbd v1.5.2PL0 Copyright (c) Steve Scherf et al.
# Submitted via: ExactAudioCopy v0.99pb5
#
DISCID=dc10a90f
DTITLE=Doug Deming and The Jewel Tones - Falling Through The Cracks
DYEAR=2009
DGENRE=Blues
TTITLE0=Tonight Is The Night
TTITLE1=Don't Worry Me Pt. 1
TTITLE2=Falling Through The Cracks
TTITLE3=Mama Didn't Raise No Fool
TTITLE4=You Changed
TTITLE5=It Was The Wine
TTITLE6=Only Time Will Tell
TTITLE7=East Side Hop
TTITLE8=Put It Down
TTITLE9=Every Night When I Get Home
TTITLE10=Whisper
TTITLE11=I Can't Believe My Eyes
TTITLE12=Don't Worry Me Pt. 2
TTITLE13=No Sense
TTITLE14=Heiding Out!
EXTD=
EXTT0=
EXTT1=
EXTT2=
EXTT3=
EXTT4=
EXTT5=
EXTT6=
EXTT7=
EXTT8=
EXTT9=
EXTT10=
EXTT11=
EXTT12=
EXTT13=
EXTT14=
PLAYORDER=
